<svg xmlns="http://www.w3.org/2000/svg" width="15" height="15" viewBox="0 0 15 15">
    <path fill="#F7464E" fill-rule="evenodd" d="M1.233 6.672C.553 6.672 0 6.12 0 5.44V1.233C0 .553.553 0 1.233 0H5.44c.68 0 1.233.553 1.233 1.233V5.44c0 .68-.553 1.233-1.233 1.233H1.233zm0 8.328C.553 15 0 14.447 0 13.767V9.56c0-.68.553-1.233 1.233-1.233H5.44c.68 0 1.233.553 1.233 1.233v4.206c0 .68-.553 1.233-1.233 1.233H1.233zm8.328-8.328c-.68 0-1.233-.553-1.233-1.233V1.233C8.328.553 8.88 0 9.56 0h4.206C14.447 0 15 .553 15 1.233V5.44c0 .68-.553 1.233-1.233 1.233H9.56zm0 8.328c-.68 0-1.233-.553-1.233-1.233V9.56c0-.68.553-1.233 1.233-1.233h4.206c.68 0 1.233.553 1.233 1.233v4.206c0 .68-.553 1.233-1.233 1.233H9.56z"/>
</svg>