<svg xmlns="http://www.w3.org/2000/svg" width="15" height="15" viewBox="0 0 15 15">
    <path fill="#898989" fill-rule="evenodd" d="M2.208 1.663c-.302 0-.548.246-.548.548v2.248c0 .302.246.548.548.548h2.25c.303 0 .549-.246.549-.548V2.21c0-.302-.246-.548-.548-.548H2.208zm-.975 5.01C.553 6.672 0 6.118 0 5.438V1.233C0 .553.553 0 1.233 0H5.44c.68 0 1.233.553 1.233 1.233V5.44c0 .68-.553 1.233-1.233 1.233H1.233zm.975 3.318c-.302 0-.548.246-.548.548v2.248c0 .302.246.547.548.547h2.25c.303 0 .549-.245.549-.547v-2.248c0-.302-.246-.548-.548-.548H2.208zM1.233 15C.553 15 0 14.447 0 13.767V9.56c0-.68.553-1.233 1.233-1.233H5.44c.68 0 1.233.553 1.233 1.233v4.206c0 .68-.553 1.233-1.233 1.233H1.233zm9.303-13.337c-.302 0-.548.246-.548.548v2.248c0 .302.246.548.548.548h2.25c.303 0 .548-.246.548-.548V2.21c0-.302-.245-.548-.547-.548h-2.251zm-.975 5.01c-.68 0-1.233-.554-1.233-1.234V1.233C8.328.553 8.88 0 9.56 0h4.206C14.447 0 15 .553 15 1.233V5.44c0 .68-.553 1.233-1.233 1.233H9.56zm.975 3.318c-.302 0-.548.246-.548.548v2.248c0 .302.246.547.548.547h2.25c.303 0 .548-.245.548-.547v-2.248c0-.302-.245-.548-.547-.548h-2.251zM9.56 15c-.68 0-1.233-.553-1.233-1.233V9.56c0-.68.553-1.233 1.233-1.233h4.206c.68 0 1.233.553 1.233 1.233v4.206c0 .68-.553 1.233-1.233 1.233H9.56z"/>
</svg>